<svg xmlns="http://www.w3.org/2000/svg" width="24" height="24" viewBox="0 0 24 24"><title>icon--menu-task</title><path d="M16.94,3H7.06A4.06,4.06,0,0,0,3,7.06v9.88A4.06,4.06,0,0,0,7.06,21h9.88A4.06,4.06,0,0,0,21,16.94V7.06A4.06,4.06,0,0,0,16.94,3Zm2.52,13.94a2.52,2.52,0,0,1-2.52,2.52H7.06a2.52,2.52,0,0,1-2.52-2.52V7.06A2.52,2.52,0,0,1,7.06,4.54h9.88a2.52,2.52,0,0,1,2.52,2.52Z" style="fill:#ababab"/><polygon points="10.69 13.98 7.92 11.16 6.82 12.24 10.71 16.19 17.18 9.45 16.07 8.38 10.69 13.98" style="fill:#ababab"/></svg>